<?xml version="1.0" encoding="utf-8"?>
<!-- Generator: Adobe Illustrator 16.0.0, SVG Export Plug-In . SVG Version: 6.00 Build 0)  -->
<!DOCTYPE svg PUBLIC "-//W3C//DTD SVG 1.1//EN" "http://www.w3.org/Graphics/SVG/1.1/DTD/svg11.dtd">
<svg version="1.1" id="rus" xmlns="http://www.w3.org/2000/svg" xmlns:xlink="http://www.w3.org/1999/xlink" x="0px" y="0px"
	 width="460px" height="90px" viewBox="0 0 460 90" enable-background="new 0 0 460 90" xml:space="preserve">
<path id="kino" fill="#E55225" d="M244.126,54.389h3.134l13.262,27.471h21.434l-18.848-38.064L280.98,8.1h-20.752L247.255,35h-3.129
	V8.1h-19.4v73.8h19.4V54.389z M320.278,48.378V81.9h19.399V8.1h-18.561l-15.885,33.505V8.1h-19.4v73.8h18.564L320.278,48.378z
	 M365.655,54.389h12.271V81.9h19.4V8.1h-19.4V35h-12.271V8.1h-19.4v73.8h19.4V54.389L365.655,54.389z M403.921,8.1v73.8H455V8.1
	H403.921z M423.328,62.486v-35H435.6v35H423.328z"/>
<path id="glav" fill="#FFFFFF" d="M47.484,81.9h22.009l6.73-54.382h6.206V81.9h19.4V8.1H59.213l-6.137,54.386h-5.584V81.9H47.484z
	 M128.361,65.582h12.179l1.5,16.318h19.432l-7.187-73.8H114.6l-7.16,73.8h19.436L128.361,65.582z M131.818,27.5h5.261l1.751,18.688
	h-8.763L131.818,27.5z M218.136,50.83L210.9,45l7.258-5.838V8.1h-51.084v73.8h51.062V50.83z M198.733,62.5H186.46v-8.309h8.3
	l3.972,3.748L198.733,62.5L198.733,62.5L198.733,62.5z M198.733,32.057l-3.972,3.743h-8.305v-8.3h12.273v4.559l0,0L198.733,32.057z
	 M24.4,81.9V27.5h24.549L51.08,8.1H5v73.8H24.4z"/>
</svg>
