<?xml version="1.0" encoding="utf-8"?>
<!-- Generator: Adobe Illustrator 16.0.0, SVG Export Plug-In . SVG Version: 6.00 Build 0)  -->
<!DOCTYPE svg PUBLIC "-//W3C//DTD SVG 1.1//EN" "http://www.w3.org/Graphics/SVG/1.1/DTD/svg11.dtd">
<svg version="1.1" id="rus" xmlns="http://www.w3.org/2000/svg" xmlns:xlink="http://www.w3.org/1999/xlink" x="0px" y="0px"
	 width="460px" height="90px" viewBox="0 0 460 90" enable-background="new 0 0 460 90" xml:space="preserve">
<path id="loader_part_h_9" fill="#E55225" d="M402.659,83.004v-38.6l-14.178-33.505v38.586L402.659,83.004z"/>
<path id="loader_part_h_5" fill="#FFFFFF" d="M143.675,46.99h-27.762l-1.885,19.427h50.556l-1.868-19.427H143.675L143.675,46.99z"/>
<path id="loader_part_h_4" fill="#FFFFFF" d="M141.931,27.707h18.972l-1.868-19.434h-39.439l-1.885,19.434H141.931z"/>
<path id="loader_part_h_1" fill="#FFFFFF" d="M222.506,82.223l-2.149-19.431l-24.291,0.032V82.2L222.506,82.223z"/>
<path id="loader_part_v_6-2" fill="#E55225" d="M422.021,83.077V9.124h-19.466v73.948L422.021,83.077z"/>
<path id="loader_part_v_5" fill="#E55225" d="M388.567,10.898l-0.931-1.774H369.19v73.953h19.377V10.898z"/>
<path id="loader_part_h_9_1_" fill="#FFFFFF" d="M62.395,80.803V42.202L48.216,8.696v38.585L62.395,80.803z"/>
<path id="loader_part_h_9_2_" fill="#FFFFFF" d="M76.576,47.354V8.771L62.395,42.276v38.599L76.576,47.354z"/>
<path id="loader_part_v_6-2_1_" fill="#FFFFFF" d="M96.04,82.636V8.684H76.576v73.948L96.04,82.636z"/>
<path id="loader_part_v_5_1_" fill="#FFFFFF" d="M48.303,8.696l-0.931-1.774H28.927v73.952h19.376V8.696z"/>
<path id="loader_part_v_4" fill="#E55225" d="M251.938,8.296h-19.754v44.507h19.754V8.296z"/>
<path id="loader_part_v_4_1_" fill="#E55225" d="M287.075,52.804V36.756h-41.9v16.048H287.075z"/>
<path id="loader_part_v_4_3_" fill="#E55225" d="M271.028,82.225h16.05V39.747h-16.05V82.225L271.028,82.225z"/>
<path id="loader_part_v_4_4_" fill="#E55225" d="M274.393,82.182v-16.05h-42.209v16.05H274.393z"/>
<path id="loader_part_v_4_2_" fill="#E55225" d="M287.386,24.668V8.296h-42.211v16.372H287.386z"/>
<path id="loader_part_v_1" fill="#FFFFFF" d="M196.066,82.199V8.216L176.689,8.27v73.953L196.066,82.199z"/>
<path id="loader_part_o_5" fill="#FFFFFF" d="M112.46,82.227h19.324l1.479-15.81h-19.236L112.46,82.227z"/>
<path id="loader_part_o_4" fill="#FFFFFF" d="M146.846,82.227h19.324l-1.585-15.81h-19.219L146.846,82.227z"/>
<path id="loader_part_o_3" fill="#FFFFFF" d="M143.728,47.051h19.042l-1.867-19.339h-18.972L143.728,47.051z"/>
<path id="loader_part_o_2" fill="#FFFFFF" d="M136.699,27.707H117.71l-1.849,19.344h19.042L136.699,27.707z"/>
<path id="loader_part_h_5_1_" fill="#E55225" d="M335.292,47.84h-27.761l-1.886,19.428h50.554l-1.866-19.428H335.292L335.292,47.84z
	"/>
<path id="loader_part_h_4_2_" fill="#E55225" d="M333.548,28.557h18.974l-1.87-19.433h-39.439l-1.885,19.433H333.548z"/>
<path id="loader_part_o_5_1_" fill="#E55225" d="M304.08,83.078h19.322l1.48-15.811h-19.235L304.08,83.078z"/>
<path id="loader_part_o_4_1_" fill="#E55225" d="M338.464,83.078h19.323l-1.585-15.811h-19.216L338.464,83.078z"/>
<path id="loader_part_o_3_1_" fill="#E55225" d="M335.347,47.901h19.043l-1.868-19.339h-18.974L335.347,47.901z"/>
<path id="loader_part_o_2_1_" fill="#E55225" d="M328.318,28.557h-18.991l-1.848,19.344h19.041L328.318,28.557z"/>
</svg>
