<svg xmlns="http://www.w3.org/2000/svg" width="129.5" height="113" viewBox="0 0 259 226">
  <metadata><?xpacket begin="﻿" id="W5M0MpCehiHzreSzNTczkc9d"?>
<x:xmpmeta xmlns:x="adobe:ns:meta/" x:xmptk="Adobe XMP Core 5.6-c138 79.159824, 2016/09/14-01:09:01        ">
   <rdf:RDF xmlns:rdf="http://www.w3.org/1999/02/22-rdf-syntax-ns#">
      <rdf:Description rdf:about=""/>
   </rdf:RDF>
</x:xmpmeta>
                                                                                                    
                                                                                                    
                                                                                                    
                                                                                                    
                                                                                                    
                                                                                                    
                                                                                                    
                                                                                                    
                                                                                                    
                                                                                                    
                                                                                                    
                                                                                                    
                                                                                                    
                                                                                                    
                                                                                                    
                                                                                                    
                                                                                                    
                                                                                                    
                                                                                                    
                                                                                                    
                           
<?xpacket end="w"?></metadata>
<defs>
    <style>
      .cls-1 {
        fill: #fff;
        fill-rule: evenodd;
      }
    </style>
  </defs>
  <path class="cls-1" d="M752.344,386.517a108.47,108.47,0,0,0,15.54-3.911l1.124,3.08a112.756,112.756,0,0,1-16.2,4.076ZM723.3,387.732l-0.2,3.268a113.267,113.267,0,0,1-16.468-2.7l0.857-3.159A110.131,110.131,0,0,0,723.3,387.732Zm-42.893-13.056-1.49,2.92a113.653,113.653,0,0,1-14.006-9.075l2.054-2.551A111.191,111.191,0,0,0,680.409,374.676Zm115.319-2.008L794,369.89a111.223,111.223,0,0,0,12.67-9.81l2.262,2.372A113.7,113.7,0,0,1,795.728,372.668Zm-151.956-25.03a113.961,113.961,0,0,1-9.246-13.9l2.9-1.524a110.893,110.893,0,0,0,8.877,13.339ZM733.249,165c59,0,108.6,46.072,112.909,104.887l0.725,9.863,29.364-46.179,2.761,1.756-33,51.9a1.632,1.632,0,0,1-1.224.752,1.775,1.775,0,0,1-1.344-.5l-42.434-44.538,2.369-2.256,40.065,42.046-0.321-8.641a109.963,109.963,0,0,0-219.847,4.139c0,2.766.1,5.458,0.284,8a110.352,110.352,0,0,0,3.058,19.032l-3.151.9a113.929,113.929,0,0,1-3.179-19.7c-0.192-2.683-.291-5.455-0.291-8.238A113.374,113.374,0,0,1,733.249,165Z" transform="translate(-620 -165)"/>
</svg>
