<svg xmlns="http://www.w3.org/2000/svg" width="26" height="26" viewBox="0 0 26 26">
  <defs>
    <style>
      .cls-1 {
        fill: #fff;
        fill-rule: evenodd;
      }
    </style>
  </defs>
  <path id="Color_Fill_2" data-name="Color Fill 2" class="cls-1" d="M487.47,520.6a9.885,9.885,0,0,1-2.1-.237l1.5,1.658a0.574,0.574,0,0,1-.029.829,0.56,0.56,0,0,1-.384.148,0.629,0.629,0,0,1-.443-0.207l-2.745-2.991,2.745-2.694a0.585,0.585,0,0,1,.827.829l-1.24,1.244a9.7,9.7,0,0,0,1.859.207,8.378,8.378,0,0,0,6.582-13.53,0.576,0.576,0,0,1,.089-0.829,0.55,0.55,0,0,1,.826.118A9.454,9.454,0,0,1,497,511.039,9.563,9.563,0,0,1,487.47,520.6Zm0.974-15.544a0.583,0.583,0,0,1-.413-0.177,0.574,0.574,0,0,1,0-.829l1.24-1.214a7.236,7.236,0,0,0-1.771-.207,8.369,8.369,0,0,0-6.641,13.441,0.607,0.607,0,0,1-.118.829,0.564,0.564,0,0,1-.354.118,0.462,0.462,0,0,1-.443-0.236A9.459,9.459,0,0,1,478,511.009a9.563,9.563,0,0,1,9.534-9.563,9.088,9.088,0,0,1,2.007.237L488.031,500a0.586,0.586,0,0,1,.856-0.8l2.716,2.99-2.745,2.695A0.584,0.584,0,0,1,488.444,505.058Z" transform="translate(-474.5 -498)"/>
</svg>
