<svg xmlns="http://www.w3.org/2000/svg" width="29" height="42" viewBox="0 0 29 42">
  <defs>
    <style>
      .cls-1 {
        fill: #787a7b;
      }

      .cls-1, .cls-2 {
        fill-rule: evenodd;
      }

      .cls-2 {
        fill: #4a4d4f;
      }
    </style>
  </defs>
  <path id="Shape_880_copy" data-name="Shape 880 copy" class="cls-1" d="M1165.32,299h0L1146,323.041h0l2.4,2.923h6.8l-1.82,12,2.5,3.037h0v0L1175,317.2h0l-2.4-2.923h-6.64l1.86-12.225-2.5-3.046h0m-9.31,21.119,3.76-4.682-0.27,1.759h0l2.4,2.923h3.13l-3.76,4.678,0.26-1.755h0.01l-0.01,0-2.4-2.921h-3.12M1165.32,299h0" transform="translate(-1146 -299)"/>
  <path id="Shape_881_copy" data-name="Shape 881 copy" class="cls-2" d="M1175,317.2h-15.5l2.4,2.924h6.94l-8.46,10.534,0.89-5.856,0.26-1.755H1146l2.4,2.924h9.76L1155.88,341,1175,317.2m-9.68-18.2-2.33,15.273h2.97l1.86-12.227-2.5-3.046m-4.65,10.532-8.51,10.588h3.85l3.76-4.683,0.9-5.905" transform="translate(-1146 -299)"/>
</svg>
